<svg width="423" height="52" viewBox="0 0 423 52" xmlns="http://www.w3.org/2000/svg">
<path d="M21.009 50.265C16.8043 50.265 13.1473 49.5053 10.038 47.986C6.92867 46.4313 4.54367 44.2407 2.883 41.414C1.22233 38.5873 0.392 35.3013 0.392 31.556C0.392 26.362 1.36367 21.751 3.307 17.723C5.28567 13.695 7.95333 10.5857 11.31 8.395C14.6667 6.169 18.3943 5.056 22.493 5.056C26.309 5.056 29.2063 6.04533 31.185 8.024C33.1637 9.96733 34.153 12.5467 34.153 15.762C34.153 17.9173 33.7643 19.6487 32.987 20.956C32.245 22.2633 31.1673 22.917 29.754 22.917C28.7647 22.917 27.9873 22.6873 27.422 22.228C26.8567 21.7687 26.574 21.0973 26.574 20.214C26.574 19.896 26.6447 19.313 26.786 18.465C26.998 17.405 27.104 16.557 27.104 15.921C27.104 12.7057 25.3903 11.098 21.963 11.098C19.631 11.098 17.405 11.8577 15.285 13.377C13.165 14.8963 11.4513 17.14 10.144 20.108C8.83667 23.0407 8.183 26.5387 8.183 30.602C8.183 34.842 9.36667 38.128 11.734 40.46C14.1013 42.7567 17.5993 43.905 22.228 43.905C24.5247 43.905 26.839 43.6223 29.171 43.057C31.5383 42.4563 34.153 41.5553 37.015 40.354C37.545 40.142 37.9867 40.036 38.34 40.036C38.9053 40.036 39.3293 40.248 39.612 40.672C39.8947 41.096 40.036 41.6437 40.036 42.315C40.036 44.4703 38.87 46.0603 36.538 47.085C34.0293 48.1803 31.4147 48.993 28.694 49.523C26.0087 50.0177 23.447 50.265 21.009 50.265ZM44.3174 50.265C42.2327 50.265 40.4484 49.7527 38.9644 48.728C37.5157 47.668 36.4204 46.29 35.6784 44.594C34.9364 42.898 34.5654 41.0783 34.5654 39.135C34.5654 36.4497 35.0601 34.0647 36.0494 31.98C37.0741 29.86 38.4521 28.217 40.1834 27.051C41.9147 25.8497 43.8581 25.249 46.0134 25.249C48.0981 25.249 49.8824 25.779 51.3664 26.839C52.8504 27.8637 53.9634 29.224 54.7054 30.92C55.4474 32.616 55.8184 34.4357 55.8184 36.379C55.8184 39.0643 55.3061 41.467 54.2814 43.587C53.2567 45.6717 51.8611 47.3147 50.0944 48.516C48.3631 49.682 46.4374 50.265 44.3174 50.265ZM44.9004 44.541C46.1017 44.541 47.1087 43.8873 47.9214 42.58C48.7694 41.2727 49.1934 39.3647 49.1934 36.856C49.1934 34.9127 48.8401 33.4463 48.1334 32.457C47.4267 31.4677 46.5787 30.973 45.5894 30.973C44.3174 30.973 43.2574 31.6267 42.4094 32.934C41.5967 34.206 41.1904 36.114 41.1904 38.658C41.1904 40.672 41.5437 42.156 42.2504 43.11C42.9571 44.064 43.8404 44.541 44.9004 44.541ZM84.2185 38.181C84.6779 38.181 85.0312 38.393 85.2785 38.817C85.5612 39.241 85.7025 39.824 85.7025 40.566C85.7025 41.8733 85.3669 42.9687 84.6955 43.852C83.0349 46.0073 80.9679 47.7033 78.4945 48.94C76.0565 50.1767 73.3005 50.795 70.2265 50.795C67.8239 50.795 65.7392 50.4417 63.9725 49.735C62.2059 48.993 60.8455 48.0037 59.8915 46.767C58.9729 45.495 58.5135 44.0817 58.5135 42.527C58.5135 40.195 59.4499 38.128 61.3225 36.326C63.1952 34.524 65.8805 32.7927 69.3785 31.132L60.6865 31.344C59.9092 31.3793 59.3085 31.1143 58.8845 30.549C58.4959 29.9483 58.3015 29.2417 58.3015 28.429C58.3015 27.581 58.4959 26.839 58.8845 26.203C59.3085 25.5317 59.8739 25.196 60.5805 25.196C62.2059 25.196 64.3789 25.3197 67.0995 25.567C67.6649 25.6023 68.6895 25.673 70.1735 25.779C71.6929 25.885 72.9649 25.938 73.9895 25.938C74.3429 25.938 75.0142 25.7967 76.0035 25.514C76.1802 25.4787 76.5159 25.3903 77.0105 25.249C77.5405 25.1077 77.9822 25.037 78.3355 25.037C78.9009 25.037 79.3602 25.2843 79.7135 25.779C80.1022 26.2737 80.2965 27.0333 80.2965 28.058C80.2965 29.1887 80.0315 30.072 79.5015 30.708C78.9715 31.344 78.1412 31.9093 77.0105 32.404C73.7952 33.782 71.1275 35.266 69.0075 36.856C66.8875 38.4107 65.8275 39.9653 65.8275 41.52C65.8275 42.5093 66.2869 43.322 67.2055 43.958C68.1242 44.594 69.4845 44.912 71.2865 44.912C73.2652 44.912 75.2615 44.4173 77.2755 43.428C79.3249 42.4387 81.1622 40.937 82.7875 38.923C83.2115 38.4283 83.6885 38.181 84.2185 38.181ZM88.3161 21.804C86.8321 21.804 85.7191 21.4683 84.9771 20.797C84.2351 20.0903 83.8641 19.1187 83.8641 17.882C83.8641 16.6453 84.3411 15.6207 85.2951 14.808C86.2844 13.96 87.5034 13.536 88.9521 13.536C90.2594 13.536 91.3194 13.854 92.1321 14.49C92.9448 15.126 93.3511 16.027 93.3511 17.193C93.3511 18.6063 92.8918 19.737 91.9731 20.585C91.0544 21.3977 89.8354 21.804 88.3161 21.804ZM87.8921 50.265C85.5954 50.265 83.9171 49.4523 82.8571 47.827C81.8324 46.2017 81.3201 44.0463 81.3201 41.361C81.3201 39.771 81.5144 37.7393 81.9031 35.266C82.3271 32.7573 82.8571 30.4253 83.4931 28.27C83.8111 27.1393 84.2351 26.362 84.7651 25.938C85.2951 25.514 86.1431 25.302 87.3091 25.302C89.1111 25.302 90.0121 25.9027 90.0121 27.104C90.0121 27.9873 89.6764 30.0367 89.0051 33.252C88.1571 37.1387 87.7331 39.771 87.7331 41.149C87.7331 42.209 87.8744 43.0217 88.1571 43.587C88.4398 44.1523 88.9168 44.435 89.5881 44.435C90.2241 44.435 91.0191 43.9933 91.9731 43.11C92.9271 42.2267 94.1991 40.831 95.7891 38.923C96.2131 38.4283 96.6901 38.181 97.2201 38.181C97.6794 38.181 98.0328 38.393 98.2801 38.817C98.5628 39.241 98.7041 39.824 98.7041 40.566C98.7041 41.9793 98.3684 43.0747 97.6971 43.852C94.1991 48.1273 90.9308 50.265 87.8921 50.265ZM98.1791 50.265C96.8364 50.265 95.8824 49.5583 95.3171 48.145C94.7871 46.7317 94.5221 44.4703 94.5221 41.361C94.5221 36.7677 95.1757 32.404 96.4831 28.27C96.8011 27.2453 97.3134 26.5033 98.0201 26.044C98.7621 25.5493 99.7867 25.302 101.094 25.302C101.801 25.302 102.295 25.3903 102.578 25.567C102.861 25.7437 103.002 26.0793 103.002 26.574C103.002 27.1393 102.737 28.4113 102.207 30.39C101.854 31.8033 101.571 33.04 101.359 34.1C101.147 35.16 100.97 36.4673 100.829 38.022C101.995 34.9833 103.302 32.51 104.751 30.602C106.2 28.694 107.613 27.3337 108.991 26.521C110.404 25.7083 111.694 25.302 112.86 25.302C115.157 25.302 116.305 26.4503 116.305 28.747C116.305 30.125 115.916 32.616 115.139 36.22C114.468 39.294 114.132 41.3257 114.132 42.315C114.132 43.7283 114.644 44.435 115.669 44.435C116.376 44.435 117.206 44.011 118.16 43.163C119.149 42.2797 120.457 40.8663 122.082 38.923C122.506 38.4283 122.983 38.181 123.513 38.181C123.972 38.181 124.326 38.393 124.573 38.817C124.856 39.241 124.997 39.824 124.997 40.566C124.997 41.9793 124.661 43.0747 123.99 43.852C122.471 45.7247 120.828 47.2617 119.061 48.463C117.33 49.6643 115.351 50.265 113.125 50.265C111.323 50.265 109.963 49.7527 109.044 48.728C108.125 47.668 107.666 46.1487 107.666 44.17C107.666 43.1807 107.913 41.414 108.408 38.87C108.867 36.644 109.097 35.107 109.097 34.259C109.097 33.6937 108.903 33.411 108.514 33.411C108.055 33.411 107.401 34.0117 106.553 35.213C105.74 36.379 104.892 37.9337 104.009 39.877C103.161 41.8203 102.472 43.8697 101.942 46.025C101.553 47.6857 101.094 48.8163 100.564 49.417C100.069 49.9823 99.2744 50.265 98.1791 50.265ZM150.124 38.181C150.583 38.181 150.937 38.393 151.184 38.817C151.467 39.241 151.608 39.824 151.608 40.566C151.608 41.9793 151.272 43.0747 150.601 43.852C148.976 45.7247 147.297 47.2617 145.566 48.463C143.87 49.6643 141.927 50.265 139.736 50.265C137.934 50.265 136.574 49.7527 135.655 48.728C134.736 47.668 134.277 46.1487 134.277 44.17C134.277 43.1807 134.524 41.414 135.019 38.87C135.478 36.644 135.708 35.107 135.708 34.259C135.708 33.6937 135.514 33.411 135.125 33.411C134.666 33.411 134.012 34.0117 133.164 35.213C132.316 36.379 131.468 37.9337 130.62 39.877C129.772 41.8203 129.083 43.8697 128.553 46.025C127.882 48.8517 126.221 50.265 123.571 50.265C122.511 50.265 121.804 49.894 121.451 49.152C121.133 48.3747 120.974 46.9967 120.974 45.018C120.974 43.8873 120.992 42.9863 121.027 42.315L121.08 38.075C121.08 32.6337 121.628 26.9627 122.723 21.062C123.854 15.1613 125.497 10.2147 127.652 6.222C129.843 2.194 132.457 0.179997 135.496 0.179997C137.121 0.179997 138.429 0.886664 139.418 2.3C140.443 3.678 140.955 5.48 140.955 7.706C140.955 11.2747 139.913 14.9847 137.828 18.836C135.743 22.652 132.351 27.1217 127.652 32.245C127.546 34.0823 127.493 35.9727 127.493 37.916C128.659 34.9127 129.949 32.4747 131.362 30.602C132.811 28.694 134.224 27.3337 135.602 26.521C137.015 25.7083 138.305 25.302 139.471 25.302C141.768 25.302 142.916 26.4503 142.916 28.747C142.916 30.125 142.527 32.616 141.75 36.22C141.079 39.294 140.743 41.3257 140.743 42.315C140.743 43.7283 141.255 44.435 142.28 44.435C142.987 44.435 143.817 44.011 144.771 43.163C145.76 42.2797 147.068 40.8663 148.693 38.923C149.117 38.4283 149.594 38.181 150.124 38.181ZM134.383 5.427C133.747 5.427 133.04 6.34567 132.263 8.183C131.486 9.985 130.726 12.4407 129.984 15.55C129.277 18.624 128.694 21.9807 128.235 25.62C130.426 23.0407 132.228 20.2317 133.641 17.193C135.09 14.1543 135.814 11.3983 135.814 8.925C135.814 7.79433 135.69 6.92866 135.443 6.328C135.196 5.72733 134.842 5.427 134.383 5.427ZM153.408 50.265C151.394 50.265 149.751 49.47 148.479 47.88C147.242 46.29 146.624 44.2053 146.624 41.626C146.624 38.7993 147.277 36.1317 148.585 33.623C149.892 31.079 151.623 29.0473 153.779 27.528C155.969 25.9733 158.284 25.196 160.722 25.196C161.499 25.196 162.011 25.355 162.259 25.673C162.541 25.9557 162.771 26.4857 162.948 27.263C163.619 27.1217 164.361 27.051 165.174 27.051C166.022 27.051 166.675 27.263 167.135 27.687C167.594 28.111 167.824 28.7117 167.824 29.489C167.824 30.3017 167.647 31.715 167.294 33.729C166.905 35.8843 166.605 37.9513 166.393 39.93C166.181 41.8733 166.075 44.064 166.075 46.502C166.075 47.8447 165.792 48.8163 165.227 49.417C164.697 49.9823 163.813 50.265 162.577 50.265C161.375 50.265 160.474 49.9823 159.874 49.417C159.308 48.8163 159.026 47.8623 159.026 46.555L159.079 45.707C157.983 48.7457 156.093 50.265 153.408 50.265ZM155.475 44.912C156.464 44.912 157.365 44.223 158.178 42.845C158.99 41.467 159.715 39.0113 160.351 35.478L161.358 30.125C159.909 30.1603 158.566 30.7257 157.33 31.821C156.093 32.881 155.104 34.2943 154.362 36.061C153.62 37.8277 153.249 39.7003 153.249 41.679C153.249 42.739 153.443 43.5517 153.832 44.117C154.256 44.647 154.803 44.912 155.475 44.912ZM215.717 38.181C216.177 38.181 216.53 38.393 216.777 38.817C217.06 39.241 217.201 39.824 217.201 40.566C217.201 41.9793 216.866 43.0747 216.194 43.852C214.746 45.6187 213.156 47.138 211.424 48.41C209.693 49.6467 207.979 50.265 206.283 50.265C203.598 50.265 201.549 48.6927 200.135 45.548C198.651 47.4207 197.344 48.675 196.213 49.311C195.118 49.947 193.828 50.265 192.344 50.265C190.189 50.265 188.405 49.47 186.991 47.88C185.613 46.2547 184.924 44.1523 184.924 41.573C184.924 38.7463 185.525 36.1317 186.726 33.729C187.928 31.291 189.571 29.3123 191.655 27.793C193.775 26.2383 196.143 25.3197 198.757 25.037C199.429 18.1823 200.701 12.3347 202.573 7.494C204.481 2.618 206.972 0.179997 210.046 0.179997C211.566 0.179997 212.82 0.868998 213.809 2.247C214.834 3.625 215.346 5.70966 215.346 8.501C215.346 12.4583 214.375 17.087 212.431 22.387C210.488 27.687 207.891 33.1283 204.64 38.711C204.782 40.7603 205.082 42.2267 205.541 43.11C206.036 43.9933 206.654 44.435 207.396 44.435C208.35 44.435 209.322 44.011 210.311 43.163C211.301 42.315 212.626 40.9017 214.286 38.923C214.71 38.4283 215.187 38.181 215.717 38.181ZM209.463 5.374C208.792 5.374 208.121 6.57533 207.449 8.978C206.778 11.3453 206.195 14.4547 205.7 18.306C205.241 22.1573 204.905 26.1853 204.693 30.39C208.651 21.7687 210.629 14.8433 210.629 9.614C210.629 8.27133 210.506 7.229 210.258 6.487C210.046 5.745 209.781 5.374 209.463 5.374ZM194.199 44.912C194.871 44.912 195.542 44.647 196.213 44.117C196.885 43.5517 197.733 42.527 198.757 41.043C198.404 39.135 198.227 36.9973 198.227 34.63C198.227 33.782 198.263 32.404 198.333 30.496C196.39 31.0967 194.765 32.404 193.457 34.418C192.185 36.3967 191.549 38.605 191.549 41.043C191.549 43.6223 192.433 44.912 194.199 44.912ZM221.847 50.265C219.762 50.265 217.978 49.7527 216.494 48.728C215.045 47.668 213.95 46.29 213.208 44.594C212.466 42.898 212.095 41.0783 212.095 39.135C212.095 36.4497 212.589 34.0647 213.579 31.98C214.603 29.86 215.981 28.217 217.713 27.051C219.444 25.8497 221.387 25.249 223.543 25.249C225.627 25.249 227.412 25.779 228.896 26.839C230.38 27.8637 231.493 29.224 232.235 30.92C232.977 32.616 233.348 34.4357 233.348 36.379C233.348 39.0643 232.835 41.467 231.811 43.587C230.786 45.6717 229.39 47.3147 227.624 48.516C225.892 49.682 223.967 50.265 221.847 50.265ZM222.43 44.541C223.631 44.541 224.638 43.8873 225.451 42.58C226.299 41.2727 226.723 39.3647 226.723 36.856C226.723 34.9127 226.369 33.4463 225.663 32.457C224.956 31.4677 224.108 30.973 223.119 30.973C221.847 30.973 220.787 31.6267 219.939 32.934C219.126 34.206 218.72 36.114 218.72 38.658C218.72 40.672 219.073 42.156 219.78 43.11C220.486 44.064 221.37 44.541 222.43 44.541ZM246.505 51.431C244.667 51.431 243.254 51.007 242.265 50.159C241.311 49.311 240.834 48.357 240.834 47.297C240.834 46.3783 241.169 45.5833 241.841 44.912C242.512 44.2407 243.501 43.905 244.809 43.905C245.268 43.905 245.798 43.958 246.399 44.064C247.035 44.1347 247.512 44.1877 247.83 44.223C247.794 43.3043 247.582 42.4387 247.194 41.626C246.84 40.8133 246.381 40.036 245.816 39.294C245.25 38.5167 244.72 37.8453 244.226 37.28C243.13 39.3647 242.035 41.096 240.94 42.474C239.88 43.852 238.714 45.1593 237.442 46.396C236.806 47.032 236.134 47.35 235.428 47.35C234.862 47.35 234.403 47.1557 234.05 46.767C233.696 46.343 233.52 45.8307 233.52 45.23C233.52 44.5233 233.767 43.8697 234.262 43.269L234.951 42.421C236.894 40.0183 238.36 38.0397 239.35 36.485C239.986 35.4603 240.622 34.2413 241.258 32.828C241.929 31.4147 242.795 29.489 243.855 27.051C244.526 25.4963 245.922 24.719 248.042 24.719C249.031 24.719 249.72 24.8073 250.109 24.984C250.497 25.1607 250.692 25.4433 250.692 25.832C250.692 26.044 250.621 26.3797 250.48 26.839C250.338 27.2983 250.144 27.7577 249.897 28.217C249.261 29.489 248.943 30.5667 248.943 31.45C248.943 31.98 249.119 32.563 249.473 33.199C249.861 33.835 250.444 34.63 251.222 35.584C252.352 37.068 253.2 38.34 253.766 39.4C254.366 40.4247 254.667 41.5553 254.667 42.792C254.667 44.276 254.313 45.6893 253.607 47.032C252.935 48.3393 251.981 49.3993 250.745 50.212C249.508 51.0247 248.095 51.431 246.505 51.431ZM299.727 33.729C300.187 33.729 300.54 33.9587 300.787 34.418C301.035 34.8773 301.158 35.4603 301.158 36.167C301.158 37.0503 301.035 37.7393 300.787 38.234C300.54 38.6933 300.151 39.0113 299.621 39.188C297.501 39.93 295.169 40.354 292.625 40.46C291.919 43.3927 290.576 45.76 288.597 47.562C286.654 49.364 284.499 50.265 282.131 50.265C278.563 50.265 275.966 48.9047 274.34 46.184C272.715 43.4633 271.902 39.5237 271.902 34.365C271.902 29.807 272.468 24.8603 273.598 19.525C274.729 14.1543 276.372 9.59633 278.527 5.851C280.718 2.07033 283.315 0.179997 286.318 0.179997C287.944 0.179997 289.251 0.886664 290.24 2.3C291.23 3.678 291.724 5.48 291.724 7.706C291.724 10.6033 291.177 13.483 290.081 16.345C288.986 19.207 287.166 22.2103 284.622 25.355C286.99 25.5317 288.915 26.521 290.399 28.323C291.883 30.0897 292.767 32.2803 293.049 34.895C294.71 34.789 296.689 34.4357 298.985 33.835C299.197 33.7643 299.445 33.729 299.727 33.729ZM285.099 5.427C284.393 5.427 283.615 6.487 282.767 8.607C281.955 10.6917 281.195 13.536 280.488 17.14C279.782 20.744 279.252 24.6837 278.898 28.959C281.23 24.6837 283.085 20.9207 284.463 17.67C285.877 14.384 286.583 11.469 286.583 8.925C286.583 7.79433 286.442 6.92866 286.159 6.328C285.912 5.72733 285.559 5.427 285.099 5.427ZM282.343 44.647C283.439 44.647 284.41 44.1877 285.258 43.269C286.106 42.3503 286.672 41.0253 286.954 39.294C285.859 38.552 285.011 37.5803 284.41 36.379C283.845 35.1777 283.562 33.9057 283.562 32.563C283.562 32.0683 283.633 31.397 283.774 30.549H283.615C282.167 30.549 280.948 31.2733 279.958 32.722C279.004 34.1353 278.527 36.0433 278.527 38.446C278.527 40.46 278.898 41.997 279.64 43.057C280.418 44.117 281.319 44.647 282.343 44.647ZM323.612 33.729C324.071 33.729 324.425 33.9587 324.672 34.418C324.919 34.8773 325.043 35.4603 325.043 36.167C325.043 37.863 324.531 38.87 323.506 39.188C321.386 39.93 319.054 40.354 316.51 40.46C315.839 43.428 314.514 45.813 312.535 47.615C310.556 49.3817 308.313 50.265 305.804 50.265C303.684 50.265 301.864 49.7527 300.345 48.728C298.861 47.7033 297.73 46.343 296.953 44.647C296.176 42.951 295.787 41.1137 295.787 39.135C295.787 36.4497 296.299 34.0647 297.324 31.98C298.349 29.86 299.762 28.217 301.564 27.051C303.366 25.8497 305.362 25.249 307.553 25.249C310.238 25.249 312.394 26.1853 314.019 28.058C315.68 29.8953 316.651 32.1743 316.934 34.895C318.595 34.789 320.573 34.4357 322.87 33.835C323.153 33.7643 323.4 33.729 323.612 33.729ZM306.228 44.647C307.359 44.647 308.33 44.1877 309.143 43.269C309.991 42.3503 310.556 41.0253 310.839 39.294C309.744 38.552 308.896 37.5803 308.295 36.379C307.73 35.1777 307.447 33.9057 307.447 32.563C307.447 31.9977 307.5 31.4323 307.606 30.867H307.341C305.928 30.867 304.744 31.556 303.79 32.934C302.871 34.2767 302.412 36.1847 302.412 38.658C302.412 40.6013 302.783 42.0853 303.525 43.11C304.302 44.1347 305.203 44.647 306.228 44.647ZM324.257 50.265C322.915 50.265 321.961 49.5583 321.395 48.145C320.865 46.7317 320.6 44.4703 320.6 41.361C320.6 36.7677 321.254 32.404 322.561 28.27C322.879 27.2453 323.392 26.5033 324.098 26.044C324.84 25.5493 325.865 25.302 327.172 25.302C327.879 25.302 328.374 25.3903 328.656 25.567C328.939 25.7437 329.08 26.0793 329.08 26.574C329.08 27.1393 328.815 28.4113 328.285 30.39C327.932 31.8033 327.649 33.04 327.437 34.1C327.225 35.16 327.049 36.4673 326.907 38.022C328.073 34.9833 329.381 32.51 330.829 30.602C332.278 28.694 333.691 27.3337 335.069 26.521C336.483 25.7083 337.772 25.302 338.938 25.302C341.235 25.302 342.383 26.4503 342.383 28.747C342.383 30.125 341.995 32.616 341.217 36.22C340.546 39.294 340.21 41.3257 340.21 42.315C340.21 43.7283 340.723 44.435 341.747 44.435C342.454 44.435 343.284 44.011 344.238 43.163C345.228 42.2797 346.535 40.8663 348.16 38.923C348.584 38.4283 349.061 38.181 349.591 38.181C350.051 38.181 350.404 38.393 350.651 38.817C350.934 39.241 351.075 39.824 351.075 40.566C351.075 41.9793 350.74 43.0747 350.068 43.852C348.549 45.7247 346.906 47.2617 345.139 48.463C343.408 49.6643 341.429 50.265 339.203 50.265C337.401 50.265 336.041 49.7527 335.122 48.728C334.204 47.668 333.744 46.1487 333.744 44.17C333.744 43.1807 333.992 41.414 334.486 38.87C334.946 36.644 335.175 35.107 335.175 34.259C335.175 33.6937 334.981 33.411 334.592 33.411C334.133 33.411 333.479 34.0117 332.631 35.213C331.819 36.379 330.971 37.9337 330.087 39.877C329.239 41.8203 328.55 43.8697 328.02 46.025C327.632 47.6857 327.172 48.8163 326.642 49.417C326.148 49.9823 325.353 50.265 324.257 50.265ZM353.73 21.804C352.246 21.804 351.133 21.4683 350.391 20.797C349.649 20.0903 349.278 19.1187 349.278 17.882C349.278 16.6453 349.755 15.6207 350.709 14.808C351.698 13.96 352.917 13.536 354.366 13.536C355.673 13.536 356.733 13.854 357.546 14.49C358.359 15.126 358.765 16.027 358.765 17.193C358.765 18.6063 358.306 19.737 357.387 20.585C356.468 21.3977 355.249 21.804 353.73 21.804ZM353.306 50.265C351.009 50.265 349.331 49.4523 348.271 47.827C347.246 46.2017 346.734 44.0463 346.734 41.361C346.734 39.771 346.928 37.7393 347.317 35.266C347.741 32.7573 348.271 30.4253 348.907 28.27C349.225 27.1393 349.649 26.362 350.179 25.938C350.709 25.514 351.557 25.302 352.723 25.302C354.525 25.302 355.426 25.9027 355.426 27.104C355.426 27.9873 355.09 30.0367 354.419 33.252C353.571 37.1387 353.147 39.771 353.147 41.149C353.147 42.209 353.288 43.0217 353.571 43.587C353.854 44.1523 354.331 44.435 355.002 44.435C355.638 44.435 356.433 43.9933 357.387 43.11C358.341 42.2267 359.613 40.831 361.203 38.923C361.627 38.4283 362.104 38.181 362.634 38.181C363.093 38.181 363.447 38.393 363.694 38.817C363.977 39.241 364.118 39.824 364.118 40.566C364.118 41.9793 363.782 43.0747 363.111 43.852C359.613 48.1273 356.345 50.265 353.306 50.265ZM383.468 38.181C383.927 38.181 384.281 38.393 384.528 38.817C384.811 39.241 384.952 39.824 384.952 40.566C384.952 41.9793 384.616 43.0747 383.945 43.852C382.426 45.7247 380.765 47.2617 378.963 48.463C377.161 49.6643 375.094 50.265 372.762 50.265C365.554 50.265 361.95 45.1947 361.95 35.054C361.95 33.4993 362.003 31.927 362.109 30.337H360.042C358.982 30.337 358.258 30.1427 357.869 29.754C357.516 29.3653 357.339 28.747 357.339 27.899C357.339 25.9203 358.134 24.931 359.724 24.931H362.745C363.346 21.0443 364.264 17.4933 365.501 14.278C366.738 11.0627 368.222 8.501 369.953 6.593C371.72 4.685 373.61 3.731 375.624 3.731C377.108 3.731 378.274 4.38467 379.122 5.692C379.97 6.99933 380.394 8.64233 380.394 10.621C380.394 16.0977 378.097 20.8677 373.504 24.931H379.44C380.005 24.931 380.412 25.0547 380.659 25.302C380.906 25.5493 381.03 26.0087 381.03 26.68C381.03 29.118 379.034 30.337 375.041 30.337H368.575C368.504 32.1037 368.469 33.4817 368.469 34.471C368.469 38.1457 368.893 40.725 369.741 42.209C370.624 43.693 372.002 44.435 373.875 44.435C375.394 44.435 376.737 43.9757 377.903 43.057C379.069 42.1383 380.447 40.7603 382.037 38.923C382.461 38.4283 382.938 38.181 383.468 38.181ZM374.193 8.819C373.663 8.819 373.062 9.49033 372.391 10.833C371.755 12.1403 371.137 13.9777 370.536 16.345C369.971 18.677 369.494 21.274 369.105 24.136C371.19 22.334 372.744 20.32 373.769 18.094C374.829 15.8327 375.359 13.7833 375.359 11.946C375.359 9.86133 374.97 8.819 374.193 8.819ZM389.594 50.265C387.509 50.265 385.725 49.7527 384.241 48.728C382.792 47.668 381.697 46.29 380.955 44.594C380.213 42.898 379.842 41.0783 379.842 39.135C379.842 36.4497 380.336 34.0647 381.326 31.98C382.35 29.86 383.728 28.217 385.46 27.051C387.191 25.8497 389.134 25.249 391.29 25.249C393.374 25.249 395.159 25.779 396.643 26.839C398.127 27.8637 399.24 29.224 399.982 30.92C400.724 32.616 401.095 34.4357 401.095 36.379C401.095 39.0643 400.582 41.467 399.558 43.587C398.533 45.6717 397.137 47.3147 395.371 48.516C393.639 49.682 391.714 50.265 389.594 50.265ZM390.177 44.541C391.378 44.541 392.385 43.8873 393.198 42.58C394.046 41.2727 394.47 39.3647 394.47 36.856C394.47 34.9127 394.116 33.4463 393.41 32.457C392.703 31.4677 391.855 30.973 390.866 30.973C389.594 30.973 388.534 31.6267 387.686 32.934C386.873 34.206 386.467 36.114 386.467 38.658C386.467 40.672 386.82 42.156 387.527 43.11C388.233 44.064 389.117 44.541 390.177 44.541ZM414.252 51.431C412.414 51.431 411.001 51.007 410.012 50.159C409.058 49.311 408.581 48.357 408.581 47.297C408.581 46.3783 408.916 45.5833 409.588 44.912C410.259 44.2407 411.248 43.905 412.556 43.905C413.015 43.905 413.545 43.958 414.146 44.064C414.782 44.1347 415.259 44.1877 415.577 44.223C415.541 43.3043 415.329 42.4387 414.941 41.626C414.587 40.8133 414.128 40.036 413.563 39.294C412.997 38.5167 412.467 37.8453 411.973 37.28C410.877 39.3647 409.782 41.096 408.687 42.474C407.627 43.852 406.461 45.1593 405.189 46.396C404.553 47.032 403.881 47.35 403.175 47.35C402.609 47.35 402.15 47.1557 401.797 46.767C401.443 46.343 401.267 45.8307 401.267 45.23C401.267 44.5233 401.514 43.8697 402.009 43.269L402.698 42.421C404.641 40.0183 406.107 38.0397 407.097 36.485C407.733 35.4603 408.369 34.2413 409.005 32.828C409.676 31.4147 410.542 29.489 411.602 27.051C412.273 25.4963 413.669 24.719 415.789 24.719C416.778 24.719 417.467 24.8073 417.856 24.984C418.244 25.1607 418.439 25.4433 418.439 25.832C418.439 26.044 418.368 26.3797 418.227 26.839C418.085 27.2983 417.891 27.7577 417.644 28.217C417.008 29.489 416.69 30.5667 416.69 31.45C416.69 31.98 416.866 32.563 417.22 33.199C417.608 33.835 418.191 34.63 418.969 35.584C420.099 37.068 420.947 38.34 421.513 39.4C422.113 40.4247 422.414 41.5553 422.414 42.792C422.414 44.276 422.06 45.6893 421.354 47.032C420.682 48.3393 419.728 49.3993 418.492 50.212C417.255 51.0247 415.842 51.431 414.252 51.431Z"/>
</svg>
